<?xml version="1.0" standalone="no"?>
<!DOCTYPE svg PUBLIC "-//W3C//DTD SVG 20010904//EN"
 "http://www.w3.org/TR/2001/REC-SVG-20010904/DTD/svg10.dtd">
<svg version="1.0" xmlns="http://www.w3.org/2000/svg"
 width="452.000000pt" height="321.000000pt" viewBox="0 0 452.000000 321.000000"
 preserveAspectRatio="xMidYMid meet">

<g transform="translate(0.000000,321.000000) scale(0.100000,-0.100000)"
fill="#000000" >
<path fill="none" stroke="#000000" stroke-width="15" class="path" d="M1195 2871 c-53 -14 -94 -40 -178 -115 -103 -91 -125 -106 -157 -106
-20 0 -22 -2 -10 -10 8 -5 42 -10 75 -10 49 0 75 7 133 35 141 67 247 83 309
45 18 -10 66 -52 108 -92 l77 -72 -36 -13 c-34 -11 -88 -43 -74 -43 3 0 30 11
61 25 l55 24 15 -23 c14 -21 14 -25 -10 -48 -14 -14 -22 -31 -19 -37 5 -8 95
-11 289 -12 155 0 300 -3 322 -7 l40 -7 0 -90 0 -90 -178 -3 c-144 -2 -183 0
-207 13 -26 13 -29 14 -24 0 5 -12 -4 -15 -47 -15 l-52 0 21 23 c12 13 22 31
22 40 0 17 -46 54 -56 44 -3 -3 4 -8 16 -12 15 -5 20 -13 18 -28 -3 -19 -11
-23 -58 -28 -31 -3 -64 -11 -75 -16 -21 -11 -59 -17 -85 -13 -8 2 0 5 19 9 19
3 36 12 39 19 3 9 -3 10 -24 2 -16 -6 -40 -8 -54 -4 -24 6 -24 7 -5 15 15 7
12 8 -15 5 -39 -4 -76 10 -84 30 -4 10 2 12 24 7 19 -3 30 -1 30 6 0 6 12 9
33 5 l32 -5 -30 15 c-16 8 -25 15 -20 17 6 1 -6 4 -25 8 -24 4 -36 12 -39 26
-3 19 -3 19 17 2 19 -17 20 -17 28 0 4 10 8 35 8 55 l1 37 -23 -22 c-35 -32
-52 -71 -52 -118 0 -89 100 -137 262 -126 72 5 81 3 140 -27 221 -111 334
-249 307 -374 -12 -58 -46 -119 -80 -144 -121 -90 -334 65 -290 212 14 47 71
100 109 100 33 0 87 -31 101 -59 10 -18 9 -19 -21 -11 -44 13 -76 2 -93 -31
-18 -34 -19 -88 -2 -110 37 -48 121 -53 169 -10 27 24 32 36 36 89 4 50 0 67
-19 102 -59 105 -222 129 -305 46 -68 -68 -69 -172 -2 -303 34 -66 40 -85 30
-95 -30 -30 -93 37 -133 140 -45 119 -26 225 62 334 27 34 49 68 49 76 0 22
-62 8 -148 -34 -193 -94 -294 -309 -236 -503 42 -142 196 -209 385 -167 86 19
265 103 362 169 91 63 122 62 94 -5 -29 -70 -150 -148 -302 -198 -38 -12 -74
-25 -79 -28 -16 -9 20 -20 104 -32 118 -16 186 -49 258 -124 63 -66 106 -140
141 -247 l22 -67 67 24 c86 30 122 30 224 -2 96 -31 160 -34 204 -11 18 9 55
46 84 82 56 70 85 85 134 67 16 -7 32 -10 34 -8 9 9 -59 36 -92 36 -29 0 -41
-8 -86 -60 -29 -34 -66 -68 -82 -76 -32 -17 -144 -16 -142 1 1 6 28 9 65 7 78
-4 104 12 151 94 16 30 39 59 50 65 19 10 32 10 103 -7 27 -6 28 -5 15 9 -8 8
-32 20 -53 25 -51 14 -91 -1 -117 -43 -11 -18 -39 -50 -62 -70 l-41 -38 -73 7
c-67 6 -73 5 -88 -16 -19 -27 -32 -18 -17 11 14 25 43 33 129 35 64 1 67 2 88
36 47 74 75 100 106 100 37 0 33 24 -6 28 -27 3 -59 -23 -115 -98 -25 -33 -25
-33 -94 -27 -84 7 -122 -8 -143 -59 -18 -42 -24 -43 -24 -3 0 20 10 40 29 60
26 26 36 29 90 29 57 0 61 2 76 30 20 39 20 59 -1 38 -13 -12 -29 -15 -76 -11
-54 5 -61 4 -88 -22 -36 -35 -60 -84 -60 -124 0 -17 -4 -31 -10 -31 -12 0 -12
3 1 60 13 55 4 110 -18 110 -10 0 -13 -5 -8 -17 25 -63 12 -143 -27 -164 -15
-8 -105 -38 -115 -39 -1 0 7 25 17 55 71 207 205 329 390 355 130 18 135 25
40 55 -184 59 -320 158 -320 233 0 34 21 28 115 -34 151 -98 305 -162 415
-171 137 -12 244 35 296 129 27 50 29 60 29 163 0 103 -2 114 -31 175 -39 81
-88 137 -160 185 -84 56 -204 89 -204 57 0 -4 23 -35 50 -67 93 -110 111 -214
60 -350 -26 -67 -89 -139 -117 -133 -25 5 -19 41 16 99 36 57 51 109 51 171 0
60 -14 95 -52 135 -83 86 -256 54 -314 -58 -31 -60 -11 -159 38 -193 43 -31
146 -12 162 29 12 33 6 93 -13 116 -16 20 -28 24 -65 22 -42 -1 -45 0 -36 18
13 24 61 49 94 49 14 0 41 -14 61 -31 93 -82 59 -221 -69 -284 -98 -48 -182
-21 -227 72 -33 68 -37 148 -10 202 45 87 147 174 288 245 61 30 83 36 137 36
153 0 236 46 236 129 0 47 -17 86 -52 118 l-23 22 1 -37 c0 -20 4 -45 8 -55 8
-17 9 -17 28 0 20 17 20 17 17 -2 -3 -15 -14 -21 -42 -25 -21 -3 -37 -9 -37
-15 1 -5 -7 -13 -17 -17 -12 -6 -7 -7 15 -3 17 2 32 0 32 -5 0 -14 34 -12 48
2 8 8 12 9 12 1 0 -17 -29 -43 -48 -44 -9 -1 -30 -1 -47 -1 -29 1 -29 1 -5 -7
l25 -8 -31 -7 c-17 -4 -43 -2 -58 4 -21 8 -27 7 -24 -2 3 -7 20 -16 39 -19
l34 -6 -38 -2 c-21 0 -48 4 -60 11 -12 6 -46 14 -77 17 -52 6 -55 8 -55 33 1
21 -2 24 -12 16 -22 -18 -14 -45 20 -72 l32 -26 -252 0 -253 0 0 94 0 93 53 7
c28 3 171 6 317 6 146 0 272 4 280 10 12 7 12 12 -4 29 -10 11 -27 23 -37 26
-23 7 -23 14 -4 39 15 20 16 20 67 -2 68 -29 74 -21 8 10 l-52 25 84 76 c47
42 97 81 112 87 65 24 160 6 288 -55 58 -28 84 -35 133 -35 33 0 67 5 75 10
12 8 9 10 -11 10 -30 0 -55 17 -158 112 -99 90 -146 112 -236 112 -58 0 -79
-5 -122 -28 -61 -33 -89 -73 -156 -216 -52 -114 -62 -124 -106 -109 -36 13
-40 25 -9 35 22 7 22 7 -6 30 -34 30 -89 31 -135 3 -31 -19 -39 -20 -75 -9
-23 7 -53 19 -68 26 -36 18 -38 37 -3 24 31 -12 75 3 75 26 0 47 -99 61 -144
19 -52 -48 -23 -93 82 -125 35 -11 70 -20 78 -20 8 0 14 -10 14 -25 0 -22 -3
-25 -27 -19 -99 22 -200 70 -237 114 -37 45 -34 92 4 67 25 -15 70 5 70 32 0
46 -82 55 -129 15 -26 -21 -31 -33 -31 -69 0 -36 5 -47 34 -73 48 -42 33 -47
-20 -7 -66 51 -76 51 -139 9 -31 -20 -58 -34 -61 -31 -3 3 4 10 15 16 25 14
51 61 51 95 0 40 -54 86 -100 86 -36 0 -70 -20 -70 -40 0 -14 30 -40 46 -40 9
0 24 4 34 10 26 14 34 -14 14 -51 -21 -41 -93 -85 -187 -114 -94 -30 -120 -32
-115 -7 2 11 23 23 63 35 33 9 80 27 105 40 37 18 46 27 48 53 6 63 -94 100
-149 55 -22 -18 -23 -21 -8 -36 18 -18 43 -22 79 -10 25 8 25 7 6 -13 -17 -20
-84 -47 -132 -54 -12 -2 -31 6 -43 16 -12 11 -41 21 -68 23 -39 4 -53 1 -75
-17 -25 -19 -41 -49 -19 -36 4 3 17 -1 27 -9 18 -13 18 -14 -9 -24 -16 -6 -34
-11 -42 -11 -19 0 -45 41 -86 133 -51 115 -96 177 -149 204 -49 25 -138 36
-185 24z m1005 -386 c0 -2 -9 -9 -20 -15 -12 -6 -20 -7 -20 -1 0 5 8 12 18 14
9 3 18 5 20 6 1 0 2 -1 2 -4z m171 -5 c5 0 9 -4 9 -9 0 -12 -38 -2 -47 12 -4
7 0 8 11 4 10 -4 22 -7 27 -7z m-223 -639 c18 -24 19 -31 8 -41 -11 -8 -18 -6
-30 12 -17 24 -22 58 -8 58 5 0 18 -13 30 -29z m157 -128 c29 -100 94 -220
146 -271 54 -52 53 -60 -12 -92 -40 -21 -88 -75 -136 -153 l-30 -48 -36 58
c-45 72 -99 129 -149 154 -21 11 -38 25 -38 31 0 6 18 26 39 44 66 57 150 241
177 389 l7 40 8 -47 c4 -25 15 -73 24 -105z"/>
<path fill="none" stroke="#000000" class="path" stroke-width="15" d="M2868 2333 c6 -2 18 -2 25 0 6 3 1 5 -13 5 -14 0 -19 -2 -12 -5z"/>
<path fill="none" class="path" stroke="#000000" stroke-width="15" d="M1618 2323 c6 -2 18 -2 25 0 6 3 1 5 -13 5 -14 0 -19 -2 -12 -5z"/>
<path fill="none" class="path" stroke="#000000" stroke-width="15" d="M3635 2064 c-62 -16 -90 -30 -135 -65 -28 -22 -50 -44 -50 -49 0 -5
19 -10 41 -12 l42 -3 -79 -50 -79 -50 38 -3 38 -3 -38 -28 c-21 -15 -44 -35
-52 -44 -12 -15 -9 -17 30 -17 l44 0 -35 -21 c-19 -12 -46 -31 -60 -43 l-26
-21 91 0 c82 0 97 -3 157 -33 46 -23 85 -53 134 -104 65 -70 67 -71 43 -28
-39 72 -136 164 -193 183 -27 9 -58 17 -68 17 -34 0 -18 19 25 30 72 19 74 20
57 31 -8 5 -32 14 -54 20 -21 6 -36 13 -33 16 14 13 89 21 135 14 29 -4 52 -6
52 -5 0 12 -84 56 -121 63 l-44 8 30 13 c46 20 133 16 189 -8 64 -29 66 -28
25 14 -45 46 -89 74 -147 89 l-47 13 40 17 c29 13 57 16 105 13 146 -11 264
-108 285 -233 l6 -40 -21 25 c-11 14 -38 46 -60 71 -36 43 -122 109 -142 109
-5 0 8 -14 28 -32 20 -18 47 -48 59 -68 26 -41 77 -178 72 -193 -1 -5 -15 7
-30 26 -23 31 -114 102 -167 132 -17 10 -16 8 42 -65 37 -46 88 -140 88 -161
0 -8 -6 -7 -19 2 -101 75 -166 119 -173 119 -5 0 7 -19 27 -42 20 -24 55 -80
78 -126 36 -74 41 -93 45 -170 3 -73 0 -97 -19 -147 l-23 -60 -23 94 c-28 115
-45 145 -109 194 -86 66 -176 89 -253 67 -34 -9 -101 -50 -101 -61 0 -3 17
-13 38 -23 55 -26 132 -77 132 -87 0 -5 -17 -9 -39 -9 -32 0 -97 -15 -110 -26
-2 -2 17 -22 42 -44 44 -39 88 -114 101 -172 l6 -27 -50 31 c-28 17 -52 29
-55 27 -2 -3 2 -27 10 -53 21 -71 28 -163 17 -231 -8 -48 -8 -63 4 -75 30 -30
39 4 38 141 0 71 1 129 2 129 2 0 18 -20 37 -45 l34 -44 7 60 c9 92 -13 169
-72 248 l-25 34 49 -7 c27 -4 67 -16 88 -26 22 -11 42 -17 44 -15 12 11 -69
123 -128 177 l-65 61 50 -8 c172 -24 257 -133 280 -358 l7 -69 35 34 c101 98
129 281 67 442 -6 17 -5 17 17 6 13 -7 37 -24 52 -38 l28 -26 -7 58 c-8 67 3
69 36 8 l19 -37 1 79 c0 90 4 90 49 2 l29 -58 7 64 c4 36 2 96 -4 135 -34 219
-143 333 -333 347 -34 3 -72 3 -83 0z"/>
<path fill="none" stroke="#000000" class="path" stroke-width="15" d="M733 2001 c-74 -25 -127 -63 -164 -117 -56 -82 -72 -136 -77 -271 -2
-68 0 -123 4 -123 5 0 20 23 33 50 13 28 28 53 33 56 4 3 8 -30 8 -73 l1 -78
19 36 c10 19 25 41 33 47 11 10 13 3 9 -45 l-5 -57 39 32 c42 35 59 41 50 17
-3 -8 -13 -51 -22 -95 -21 -106 -8 -193 43 -277 36 -61 73 -106 81 -98 2 2 8
42 13 88 5 47 18 111 30 143 40 108 157 195 263 194 30 -1 30 -1 11 -16 -65
-48 -147 -149 -168 -207 -6 -15 -3 -15 34 3 22 12 63 24 91 27 l51 6 -26 -34
c-52 -69 -67 -116 -66 -219 0 -78 2 -92 12 -76 7 11 24 33 39 50 l27 31 -1
-121 c0 -141 5 -168 31 -155 16 9 17 22 13 119 -4 97 4 174 23 225 10 25 -13
22 -58 -8 l-37 -26 0 24 c0 39 48 123 97 167 34 32 42 44 32 51 -15 9 -100 29
-127 29 -26 1 28 41 99 75 32 16 59 32 59 37 0 4 -19 20 -41 35 -62 41 -148
44 -225 9 -122 -56 -170 -116 -195 -246 -7 -36 -16 -69 -20 -73 -17 -21 -44
89 -44 179 0 87 2 95 42 175 23 46 58 103 78 127 21 24 35 45 33 48 -4 4 -94
-57 -172 -117 l-28 -22 7 24 c14 45 55 118 87 156 62 73 65 77 48 68 -50 -27
-143 -101 -174 -137 -20 -23 -36 -39 -36 -37 0 3 7 30 16 60 24 81 61 149 107
197 23 23 37 42 32 42 -22 0 -113 -79 -160 -139 -56 -70 -67 -63 -35 22 27 73
94 140 169 168 73 28 173 30 221 4 l35 -18 -55 -11 c-60 -12 -95 -34 -150 -91
l-35 -36 50 21 c66 29 140 35 190 17 l40 -14 -35 -8 c-40 -8 -106 -40 -115
-55 -4 -6 17 -7 57 -4 39 4 74 1 93 -6 l30 -12 -47 -17 c-26 -9 -49 -19 -52
-22 -4 -3 24 -14 61 -24 l67 -18 -60 -17 c-32 -9 -73 -24 -90 -33 -36 -19
-121 -109 -148 -158 -15 -28 -6 -22 50 33 38 37 94 79 124 95 49 25 66 28 153
28 l98 0 -38 32 c-21 18 -46 35 -55 39 -31 10 -19 24 20 24 l37 1 -25 22 c-14
12 -39 32 -55 45 l-30 23 45 -6 45 -7 -46 34 c-25 18 -62 42 -83 53 l-37 20
48 10 48 10 -56 42 c-30 24 -75 49 -98 58 -58 20 -154 19 -218 -4z"/>
<path fill="none" stroke="#000000" class="path" stroke-width="15" d="M3144 1328 c23 -32 19 -66 -14 -127 -16 -29 -26 -61 -23 -70 3 -9 26
-37 51 -63 30 -31 43 -52 38 -63 -8 -23 -62 -17 -60 8 2 21 -19 22 -40 1 -38
-38 -4 -84 62 -84 72 0 101 48 87 143 -4 29 -8 66 -8 82 0 78 -18 134 -53 164
-41 36 -62 41 -40 9z"/>
<path fill="none" stroke="#000000" class="path" stroke-width="15" d="M1347 1319 c-38 -29 -57 -70 -57 -121 0 -24 -5 -77 -11 -118 -15 -99
1 -143 56 -159 76 -21 136 36 89 83 -21 21 -42 20 -40 -1 2 -25 -52 -31 -61
-7 -4 11 7 29 39 58 62 57 65 73 28 139 -34 60 -37 92 -14 125 19 27 8 28 -29
1z"/>
<path fill="none" stroke="#000000" class="path" stroke-width="15" d="M1637 1203 c-14 -14 -6 -23 21 -23 32 0 50 -16 96 -88 l31 -47 67 -1
c89 -2 112 -9 126 -39 14 -30 9 -32 -18 -5 -18 18 -28 19 -89 14 l-68 -7 -42
38 c-23 21 -49 51 -58 66 -34 58 -128 70 -172 24 -15 -16 -14 -17 14 -11 82
19 86 19 112 -5 14 -13 33 -40 44 -60 10 -20 33 -49 50 -64 29 -24 39 -26 97
-23 39 2 64 -1 63 -7 -2 -18 -108 -17 -145 0 -18 9 -54 43 -80 76 -42 54 -49
59 -83 59 -21 -1 -54 -10 -73 -21 -19 -11 -26 -17 -15 -14 81 26 98 20 169
-68 80 -98 135 -110 284 -63 98 31 138 32 212 6 62 -22 84 -25 75 -10 -3 5
-30 17 -60 25 -30 9 -63 24 -74 33 -24 21 -41 80 -30 107 11 29 11 65 -1 65
-17 0 -23 -51 -13 -107 5 -30 6 -56 1 -59 -4 -3 -8 7 -8 23 -1 41 -33 106 -66
132 -25 20 -37 22 -85 18 -44 -4 -61 -1 -73 11 -21 21 -21 1 -1 -38 15 -28 19
-30 76 -30 54 0 64 -3 90 -29 29 -30 36 -55 20 -79 -6 -10 -10 -5 -14 17 -10
49 -58 73 -129 65 -81 -9 -102 -1 -132 50 -15 25 -36 52 -48 61 -23 16 -60 20
-71 8z"/>
<path fill="none" stroke="#000000" class="path" stroke-width="15" d="M2113 871 c-21 -15 -55 -52 -74 -82 -26 -41 -35 -49 -37 -34 -10 69
-28 95 -65 95 -20 0 -20 -1 6 -28 61 -64 3 -202 -85 -202 -83 0 -131 95 -94
185 l15 35 -39 -20 c-76 -39 -101 -37 -290 20 -65 19 -81 21 -117 11 -55 -15
-91 -61 -103 -134 -20 -127 39 -198 141 -168 40 12 45 31 9 31 -11 0 -27 11
-36 25 -13 21 -14 30 -4 62 32 98 78 119 182 84 73 -25 118 -27 158 -6 28 14
30 14 30 -2 0 -35 -57 -139 -94 -171 -41 -36 -75 -41 -99 -14 -22 24 -21 44 4
95 l20 42 -30 -32 c-28 -30 -51 -86 -51 -126 0 -10 6 -33 14 -52 20 -46 75
-64 129 -42 44 19 90 85 108 158 l13 50 33 -53 c36 -57 40 -79 18 -98 -21 -18
-35 -3 -35 38 l-1 37 -14 -25 c-30 -52 -8 -110 42 -110 28 0 44 22 50 69 5 40
5 40 60 47 44 5 57 3 73 -11 11 -10 20 -26 20 -35 0 -27 -36 -53 -65 -48 -30
6 -32 -1 -5 -30 13 -13 33 -22 51 -22 59 0 92 114 50 170 l-19 24 37 33 c21
17 55 64 75 103 41 77 78 110 104 94 29 -19 37 -41 25 -73 -9 -24 -8 -29 3
-24 8 3 19 14 25 25 11 20 11 20 25 -1 20 -29 36 -27 23 3 -22 48 30 92 75 63
12 -9 39 -47 60 -86 36 -69 87 -131 108 -131 6 0 4 -8 -5 -18 -39 -43 -39
-120 1 -164 20 -23 65 -23 84 0 29 33 28 38 -7 34 -26 -3 -36 1 -45 18 -15 29
-5 67 21 75 11 4 42 4 70 0 47 -7 49 -8 49 -39 0 -68 62 -102 96 -51 17 26 12
76 -10 94 -10 8 -12 4 -9 -17 5 -39 -11 -60 -31 -43 -9 8 -16 23 -16 34 0 20
50 107 61 107 4 0 10 -15 13 -32 9 -48 57 -128 89 -152 38 -28 100 -26 133 4
33 32 34 117 1 174 -27 49 -53 62 -30 16 19 -38 20 -75 3 -95 -44 -53 -153 46
-190 174 -10 36 -11 35 26 16 39 -20 90 -19 159 5 73 25 96 25 129 -1 35 -28
56 -70 56 -114 0 -33 -4 -37 -42 -54 l-43 -18 40 -12 c51 -14 68 -14 100 1 37
17 55 57 55 122 0 68 -24 130 -59 155 -49 35 -88 35 -196 0 -122 -40 -191 -43
-252 -11 -24 12 -43 21 -43 18 0 -2 7 -20 15 -39 25 -61 20 -95 -24 -138 -58
-58 -130 -47 -165 25 -25 54 -21 112 10 141 22 20 23 25 10 25 -34 0 -56 -21
-67 -65 l-11 -44 -37 54 c-63 94 -141 130 -197 91 -17 -12 -22 -12 -39 0 -32
23 -88 17 -132 -15z"/>
</g>
</svg>
